<svg xmlns="http://www.w3.org/2000/svg" viewBox="0 0 50 80">
  <!-- Main stem -->
  <rect x="20" y="10" width="10" height="70" rx="5" fill="#2d7541" />
  
  <!-- Left arm -->
  <path d="M20 30 L10 30 L10 50 C10 55 15 55 20 50 Z" fill="#2d7541" />
  
  <!-- Right arm -->
  <path d="M30 20 L40 20 L40 40 C40 45 35 45 30 40 Z" fill="#2d7541" />
  
  <!-- Spikes -->
  <line x1="15" y1="15" x2="10" y2="10" stroke="#000" stroke-width="1" />
  <line x1="35" y1="25" x2="40" y2="20" stroke="#000" stroke-width="1" />
  <line x1="15" y1="35" x2="10" y2="30" stroke="#000" stroke-width="1" />
  <line x1="15" y1="45" x2="10" y2="40" stroke="#000" stroke-width="1" />
  <line x1="15" y1="55" x2="10" y2="50" stroke="#000" stroke-width="1" />
  <line x1="35" y1="35" x2="40" y2="30" stroke="#000" stroke-width="1" />
  <line x1="35" y1="45" x2="40" y2="40" stroke="#000" stroke-width="1" />
  <line x1="25" y1="5" x2="25" y2="0" stroke="#000" stroke-width="1" />
  <line x1="25" y1="65" x2="25" y2="60" stroke="#000" stroke-width="1" />
  <line x1="25" y1="75" x2="25" y2="70" stroke="#000" stroke-width="1" />
</svg>
