<svg xmlns="http://www.w3.org/2000/svg" viewBox="0 0 150 80">
  <!-- Wheels -->
  <circle cx="30" cy="60" r="15" fill="none" stroke="#543a1c" stroke-width="3" />
  <circle cx="30" cy="60" r="3" fill="#543a1c" />
  <circle cx="120" cy="60" r="15" fill="none" stroke="#543a1c" stroke-width="3" />
  <circle cx="120" cy="60" r="3" fill="#543a1c" />
  
  <!-- Spokes -->
  <line x1="30" y1="45" x2="30" y2="75" stroke="#543a1c" stroke-width="2" />
  <line x1="15" y1="60" x2="45" y2="60" stroke="#543a1c" stroke-width="2" />
  <line x1="20" y1="50" x2="40" y2="70" stroke="#543a1c" stroke-width="2" />
  <line x1="40" y1="50" x2="20" y2="70" stroke="#543a1c" stroke-width="2" />
  
  <line x1="120" y1="45" x2="120" y2="75" stroke="#543a1c" stroke-width="2" />
  <line x1="105" y1="60" x2="135" y2="60" stroke="#543a1c" stroke-width="2" />
  <line x1="110" y1="50" x2="130" y2="70" stroke="#543a1c" stroke-width="2" />
  <line x1="130" y1="50" x2="110" y2="70" stroke="#543a1c" stroke-width="2" />
  
  <!-- Body -->
  <rect x="40" y="20" width="70" height="40" fill="#8c3e1a" />
  
  <!-- Roof -->
  <rect x="35" y="15" width="80" height="10" fill="#3d2314" />
  
  <!-- Windows -->
  <rect x="50" y="30" width="10" height="10" fill="#d9c7aa" />
  <rect x="70" y="30" width="10" height="10" fill="#d9c7aa" />
  <rect x="90" y="30" width="10" height="10" fill="#d9c7aa" />
  
  <!-- Chassis -->
  <rect x="30" y="50" width="90" height="5" fill="#543a1c" />
  
  <!-- Driver seat -->
  <rect x="110" y="25" width="10" height="25" fill="#3d2314" />
  
  <!-- Driver -->
  <circle cx="115" cy="20" r="5" fill="#e6b98b" />
  <rect x="110" y="25" width="10" height="10" fill="#8c3e1a" />
</svg>
